<svg width="214" height="53" viewBox="0 0 214 53" fill="none" xmlns="http://www.w3.org/2000/svg">
<g clip-path="url(#clip0)">
<path d="M115.342 14.3795H107.309V45.1246H115.342V14.3795Z" fill="white"/>
<path d="M76.7955 14.3795H68.7617V45.1246H76.7955V14.3795Z" fill="white"/>
<path d="M143.647 14.3795H135.613V45.1246H143.647V14.3795Z" fill="white"/>
<path fill-rule="evenodd" clip-rule="evenodd" d="M54.607 41.6204C51.8597 44.0399 48.2383 45.5 44.2423 45.5C35.5425 45.5 28.5078 38.4499 28.5078 29.7311C28.5078 21.0124 35.5425 13.9623 44.2423 13.9623C48.1551 13.9623 51.7348 15.3806 54.4821 17.7585L49.2373 23.6405C47.8637 22.5142 46.1154 21.805 44.2006 21.805C39.8716 21.805 36.3334 25.3509 36.3334 29.6894C36.3334 34.028 39.8716 37.5739 44.2006 37.5739C46.157 37.5739 47.9469 36.8647 49.3206 35.6549L54.607 41.6204Z" fill="white"/>
<path fill-rule="evenodd" clip-rule="evenodd" d="M10.3647 39.4513L8.53323 45.1247H0L15.4847 0.237671L30.9694 45.1247H22.3945L20.6046 39.4513H10.3647ZM15.4847 23.4321L12.9872 31.2331H17.9406L15.4847 23.4321Z" fill="white"/>
<path fill-rule="evenodd" clip-rule="evenodd" d="M64.1014 11.793H76.8804L92.0737 52.1746L107.225 11.793H145.396L140.942 3.69995H101.273L92.0737 27.8538L82.8329 3.69995H41.9982L37.5859 11.793H56.0677V45.1245H64.1014V11.793Z" fill="white"/>
<path fill-rule="evenodd" clip-rule="evenodd" d="M153.013 29.7728C153.013 25.476 156.51 21.9718 160.797 21.9718C165.084 21.9718 168.581 25.476 168.581 29.7728C168.581 34.0696 165.084 37.5738 160.797 37.5738C156.51 37.5738 153.013 34.0696 153.013 29.7728ZM145.062 29.7728C145.062 21.054 152.097 14.0039 160.797 14.0039C169.497 14.0039 176.531 21.054 176.531 29.7728C176.531 38.4915 169.497 45.5416 160.797 45.5416C152.097 45.5416 145.062 38.4498 145.062 29.7728Z" fill="white"/>
<path fill-rule="evenodd" clip-rule="evenodd" d="M192.307 26.0184V14.3795H200.383V46.2927L185.897 32.0673V45.1246H177.863V13.5452L192.307 26.0184Z" fill="white"/>
<path fill-rule="evenodd" clip-rule="evenodd" d="M206.875 44.8325H207.999V42.8301H209.123C209.414 42.8301 209.581 42.8718 209.747 42.997C209.872 43.1221 209.955 43.3307 209.997 43.581C210.039 43.7896 210.039 43.9982 210.039 44.2068C210.039 44.4154 210.08 44.6239 210.163 44.7908H211.287C211.204 44.7074 211.162 44.5822 211.162 44.4154C211.121 44.2485 211.121 44.1233 211.121 43.9565C211.121 43.7896 211.121 43.6645 211.121 43.581C211.121 43.3307 211.038 43.0804 210.954 42.8301C210.829 42.6215 210.663 42.4547 210.413 42.3712C210.705 42.2461 210.913 42.0792 211.038 41.8706C211.162 41.6621 211.246 41.4118 211.246 41.078C211.246 40.7026 211.121 40.3688 210.829 40.0768C210.58 39.8265 210.205 39.6597 209.747 39.6597H206.875V44.8325ZM207.999 40.6191H209.206C209.456 40.6191 209.664 40.6609 209.789 40.786C209.914 40.9112 209.997 41.078 209.997 41.3283C209.997 41.5786 209.914 41.7872 209.789 41.8706C209.664 41.9958 209.456 42.0375 209.206 42.0375H207.999V40.6191Z" fill="white"/>
<path fill-rule="evenodd" clip-rule="evenodd" d="M204.796 42.413C204.796 40.1603 206.628 38.3664 208.834 38.3664C211.082 38.3664 212.872 40.202 212.872 42.413C212.872 44.6656 211.04 46.4595 208.834 46.4595C206.586 46.5012 204.796 44.6656 204.796 42.413ZM204.297 42.413C204.297 39.91 206.337 37.8658 208.834 37.8658C211.332 37.8658 213.371 39.91 213.371 42.413C213.371 44.9159 211.332 46.9601 208.834 46.9601C206.337 46.9601 204.297 44.9159 204.297 42.413Z" fill="white"/>
<path fill-rule="evenodd" clip-rule="evenodd" d="M125.746 22.4725C125.746 21.221 126.995 21.0542 127.869 21.0542C128.743 21.0542 133.114 21.0542 133.114 21.0542V14.3795C133.114 14.3795 129.451 14.3795 125.205 14.3795C119.127 14.3795 118.004 18.6763 118.004 21.4296C118.004 28.6466 126.245 33.444 126.245 36.2807C126.245 37.9077 124.372 38.1997 123.54 38.1997C122.666 38.1997 117.629 38.1997 117.629 38.1997V45.1246C117.629 45.1246 123.415 45.1246 126.37 45.1246C129.326 45.1246 134.321 43.748 134.321 38.158C134.321 30.1484 125.746 26.0602 125.746 22.4725Z" fill="white"/>
</g>
<defs>
<clipPath id="clip0">
<rect width="213.372" height="51.9371" fill="white" transform="translate(0 0.237671)"/>
</clipPath>
</defs>
</svg>
