<svg width="14" height="20" viewBox="0 0 14 20" fill="none" xmlns="http://www.w3.org/2000/svg">
<path fill-rule="evenodd" clip-rule="evenodd" d="M5.90435 0.276745L0.306806 5.72674C-0.0142295 6.09598 -0.146595 6.80448 0.224489 7.21698C0.589646 7.62368 1.29823 7.61176 1.66503 7.20642L5.59582 3.37439L5.59582 18.9781C5.59582 19.5425 6.03803 20 6.58363 20C7.12922 20 7.57143 19.5425 7.57143 18.9781L7.57143 3.37439L11.5022 7.20642C11.84 7.55556 12.5733 7.6196 12.9428 7.21698C13.3125 6.8147 13.1943 6.08133 12.8604 5.72674L7.2629 0.276745C7.07127 0.0904233 6.84638 -0.000522913 6.58362 0.00015993C6.3482 0.00969668 6.07622 0.109838 5.90435 0.276745Z" fill="#868686"/>
</svg>
