<svg width="97" height="24" viewBox="0 0 97 24" fill="none" xmlns="http://www.w3.org/2000/svg">
<g clip-path="url(#clip0)">
<path d="M52.4334 6.46594H48.7812V20.5233H52.4334V6.46594Z" fill="white"/>
<path d="M34.9139 6.46594H31.2617V20.5233H34.9139V6.46594Z" fill="white"/>
<path d="M65.3045 6.46594H61.6523V20.5233H65.3045V6.46594Z" fill="white"/>
<path fill-rule="evenodd" clip-rule="evenodd" d="M24.8296 18.9212C23.5807 20.0275 21.9344 20.6951 20.1178 20.6951C16.1629 20.6951 12.9648 17.4716 12.9648 13.4852C12.9648 9.49874 16.1629 6.27527 20.1178 6.27527C21.8966 6.27527 23.524 6.92378 24.7729 8.01098L22.3886 10.7004C21.7641 10.1854 20.9693 9.86114 20.0989 9.86114C18.1309 9.86114 16.5224 11.4824 16.5224 13.4661C16.5224 15.4498 18.1309 17.071 20.0989 17.071C20.9883 17.071 21.8019 16.7468 22.4264 16.1936L24.8296 18.9212Z" fill="white"/>
<path fill-rule="evenodd" clip-rule="evenodd" d="M4.71186 17.9294L3.87924 20.5234H0L7.03941 0L14.0788 20.5234H10.1806L9.36695 17.9294H4.71186ZM7.03941 10.605L5.90402 14.1718H8.15587L7.03941 10.605Z" fill="white"/>
<path fill-rule="evenodd" clip-rule="evenodd" d="M29.14 5.28345H34.9494L41.8563 23.7469L48.7443 5.28345H66.0969L64.0721 1.58313H46.0383L41.8563 12.6269L37.6554 1.58313H19.0918L17.0859 5.28345H25.4878V20.5234H29.14V5.28345Z" fill="white"/>
<path fill-rule="evenodd" clip-rule="evenodd" d="M69.5596 13.5042C69.5596 11.5396 71.1492 9.93741 73.0983 9.93741C75.0473 9.93741 76.6369 11.5396 76.6369 13.5042C76.6369 15.4688 75.0473 17.071 73.0983 17.071C71.1492 17.071 69.5596 15.4688 69.5596 13.5042ZM65.9453 13.5042C65.9453 9.51779 69.1433 6.29431 73.0983 6.29431C77.0532 6.29431 80.2512 9.51779 80.2512 13.5042C80.2512 17.4906 77.0532 20.7141 73.0983 20.7141C69.1433 20.7141 65.9453 17.4716 65.9453 13.5042Z" fill="white"/>
<path fill-rule="evenodd" clip-rule="evenodd" d="M87.4257 11.7877V6.46607H91.0968V21.0575L84.5115 14.5534V20.5235H80.8594V6.08459L87.4257 11.7877Z" fill="white"/>
<path fill-rule="evenodd" clip-rule="evenodd" d="M94.0469 20.3899H94.5578V19.4744H95.0687C95.2012 19.4744 95.2769 19.4935 95.3526 19.5507C95.4093 19.6079 95.4472 19.7033 95.4661 19.8177C95.485 19.9131 95.485 20.0085 95.485 20.1038C95.485 20.1992 95.504 20.2946 95.5418 20.3709H96.0527C96.0149 20.3327 95.996 20.2755 95.996 20.1992C95.977 20.1229 95.977 20.0657 95.977 19.9894C95.977 19.9131 95.977 19.8559 95.977 19.8177C95.977 19.7033 95.9392 19.5888 95.9013 19.4744C95.8446 19.379 95.7689 19.3027 95.6553 19.2646C95.7878 19.2074 95.8824 19.1311 95.9392 19.0357C95.996 18.9403 96.0338 18.8259 96.0338 18.6733C96.0338 18.5016 95.977 18.349 95.8446 18.2155C95.731 18.1011 95.5607 18.0248 95.3526 18.0248H94.0469V20.3899ZM94.5578 18.4635H95.1066C95.2201 18.4635 95.3147 18.4826 95.3715 18.5398C95.4283 18.597 95.4661 18.6733 95.4661 18.7877C95.4661 18.9022 95.4283 18.9975 95.3715 19.0357C95.3147 19.0929 95.2201 19.112 95.1066 19.112H94.5578V18.4635Z" fill="white"/>
<path fill-rule="evenodd" clip-rule="evenodd" d="M93.1021 19.2836C93.1021 18.2536 93.9347 17.4335 94.9376 17.4335C95.9595 17.4335 96.7731 18.2727 96.7731 19.2836C96.7731 20.3136 95.9405 21.1338 94.9376 21.1338C93.9158 21.1529 93.1021 20.3136 93.1021 19.2836ZM92.875 19.2836C92.875 18.1392 93.8022 17.2046 94.9376 17.2046C96.073 17.2046 97.0002 18.1392 97.0002 19.2836C97.0002 20.4281 96.073 21.3627 94.9376 21.3627C93.8022 21.3627 92.875 20.4281 92.875 19.2836Z" fill="white"/>
<path fill-rule="evenodd" clip-rule="evenodd" d="M57.1666 10.1663C57.1666 9.59405 57.7343 9.51775 58.1316 9.51775C58.529 9.51775 60.5159 9.51775 60.5159 9.51775V6.46594C60.5159 6.46594 58.8507 6.46594 56.9206 6.46594C54.1578 6.46594 53.6469 8.43054 53.6469 9.68942C53.6469 12.9892 57.3936 15.1827 57.3936 16.4797C57.3936 17.2236 56.5421 17.3571 56.1636 17.3571C55.7663 17.3571 53.4766 17.3571 53.4766 17.3571V20.5233C53.4766 20.5233 56.1069 20.5233 57.4504 20.5233C58.794 20.5233 61.0647 19.8939 61.0647 17.338C61.0647 13.6758 57.1666 11.8066 57.1666 10.1663Z" fill="white"/>
</g>
<defs>
<clipPath id="clip0">
<rect width="97" height="23.7469" fill="white"/>
</clipPath>
</defs>
</svg>
